<?xml version="1.0" encoding="utf-8"?><!-- Generator: Adobe Illustrator 16.0.0, SVG Export Plug-In . SVG Version: 6.00 Build 0)  --><!DOCTYPE svg PUBLIC "-//W3C//DTD SVG 1.1//EN" "http://www.w3.org/Graphics/SVG/1.1/DTD/svg11.dtd"><svg xmlns="http://www.w3.org/2000/svg" xmlns:xlink="http://www.w3.org/1999/xlink" version="1.1" id="Layer_1" x="0px" y="0px" width="90px" height="90px" viewBox="0 0 90 90" enable-background="new 0 0 90 90" xml:space="preserve">
<g>
	<g>
		<path fill="#F0F0F0" d="M90,79.876C90,85.444,85.444,90,79.876,90H10.124C4.556,90,0,85.444,0,79.876V10.124    C0,4.556,4.556,0,10.124,0h69.752C85.444,0,90,4.556,90,10.124V79.876z"/>
	</g>
	<g>
		<defs>
		  <path id="SVGID_1_" fill="#F0F0F0" d="M90,79.876C90,85.444,85.444,90,79.876,90H10.124C4.556,90,0,85.444,0,79.876V10.124    C0,4.556,4.556,0,10.124,0h69.752C85.444,0,90,4.556,90,10.124V79.876z"/>
		</defs>
		<clipPath id="SVGID_2_">
			<use xlink:href="#SVGID_1_" overflow="visible"/>
		</clipPath>
		<g clip-path="url(#SVGID_2_)" id="world">
			<path fill="#E0E0E0" d="M31.899,23.212c0.059-0.023,0.204,0.037,0.244,0c0.13-0.117,0.22-0.504,0.37-0.736     c0.206-0.315,0.426-0.327,0.488-0.614c0.055-0.229-0.22-0.853-0.116-1.344c0.033-0.194,0.238-0.284,0.363-0.486     c0.229-0.389,0.384-0.672,0.609-1.103c0.244-0.453,0.303-1.138,0.124-1.962c0.181-0.143,0.344-0.306,0.49-0.486     c-0.254-1.062-0.004-2.09,0.491-2.941c0.107-0.188,0.175-0.398,0.243-0.486c0.403-0.567,1.388-0.848,1.348-1.717     c-0.362-0.623-1.299-0.511-1.962-0.238c-0.109-0.22-0.295-0.364-0.366-0.619c0.096-0.354,0.58-0.314,0.486-0.854     c-0.175-0.351-0.556-0.458-0.854-0.733c-0.504-0.471-0.695-0.889-1.467-1.103c-0.231-0.064-0.671-0.138-0.855-0.122     c-0.247,0.013-0.642,0.401-1.104,0.489c-0.331,0.062-0.696-0.071-0.857,0c-0.484,0.213-0.714,0.879-1.223,1.099     c-0.413,0.183-0.661-0.179-0.98,0.248c-0.308-0.505-1.073-0.556-1.96-0.492c-0.061-1.608-1.454-1.889-2.568-2.45h-1.956     c-0.61,0.659-1.935,0.597-2.941,0.861c-0.354,0.214-0.308,0.83-0.614,1.103c-0.242-0.127-0.188-0.545-0.605-0.494     c-1.276,0.565-1.703,1.976-1.842,3.674c0.111,0.505,0.907,0.323,0.984,0.858c-0.204,0.655-0.889,0.826-1.597,0.977     c-0.61-0.041-0.439-0.867-1.221-0.733c-0.802,0.642,0.939,1.519-0.128,2.08c-0.59-0.293-0.888-0.853-0.606-1.709     c-0.425-0.539-0.988-0.201-1.838-0.252c-0.367,0.707,0.277,1.108,0.365,1.717c0.585,0.075,1.082,0.226,1.227,0.734     c0.384,0.061,0.431-0.22,0.853-0.118c0.478,0.981,2.478,1.497,3.676,0.975c0.15-0.346,0.15-0.757,0-1.099     c-0.717-0.535-2.008,0.252-2.199-0.736c0.686-0.401,1.021,0.488,1.955,0.244c0.295,0.354,0.706,0.404,1.225,0.244     c0.356-0.509,0.48-1.062,0.977-1.467c0.157-0.127,0.503-0.109,0.736-0.242c0.202-0.118,0.253-0.375,0.49-0.371     c0.183-0.35,0.224-0.838,0.486-1.102c0.965-0.1,1.371-0.751,2.207-0.979c0.138,0.354,0.22,0.759,0.244,1.227     c-0.602,0.578-1.918,0.441-2.694,0.854c0.312,1.014-0.322,2.26,0.371,2.937c1.012,0.234,1.726,0.01,2.203,0.738     c0.253,0.389,0.412,1.562,0.371,2.448c-0.022,0.352-0.242,0.72-0.251,1.103c-0.012,0.354,0.157,0.754,0.123,0.978     c-0.06,0.364-0.477,0.646-0.367,0.977c-0.049,0.503,0.521,0.379,0.614,0.735c-0.337,0.47-0.895,0.974-0.98,1.839     c-0.064,0.651,0.271,2.104,0.49,2.813c0.176,0.601,0.226,0.967,0.61,1.225c0.123,0.078,0.339,0.022,0.49,0.124     c0.32,0.201,0.467,0.659,0.857,0.49c0.586-0.381,0.706-1.097,1.101-1.715c0.055-0.091,0.049-0.271,0.126-0.366     c0.032-0.055,0.216-0.077,0.239-0.124c0.192-0.352,0.115-0.798,0.49-1.099c0.326-0.269,1.224-0.227,1.838-0.619     c0.474-0.298,0.725-0.953,1.345-1.22c0.457-0.2,1.208-0.13,1.717-0.367c0.055-0.031,0.08-0.228,0.123-0.243     c0.062-0.029,0.185,0.037,0.243,0C31.824,23.424,31.862,23.233,31.899,23.212z"/>
			<path fill="#E0E0E0" d="M63.48,10.479c0.076,0.045,0.163,0.206,0.247,0.247c0.738,0.328,1.25,0.021,1.837-0.122     c0.226,0.309,0.226,0.836,0.733,0.856c0.416-0.153,0.705-0.441,0.857-0.856c-0.243-0.274-0.472-0.704-0.98-0.734     c-0.376-0.024-0.487,0.123-0.854,0.242c-0.398-0.537-0.851-1.025-1.717-1.101c-0.226-0.462-0.479-0.901-1.22-0.854     c-0.465,0.604-0.265,1.347,0.119,1.832C62.592,10.099,63.329,10.383,63.48,10.479z"/>
			<path fill="#E0E0E0" d="M12.437,11.584c0.284,0,0.573,0,0.858,0c0.063,0.38,0.217,0.684,0.366,0.979     c0.34,0.088,0.374-0.278,0.49-0.494c0.502-0.924-0.137-1.209-0.736-1.59c0.034-0.514-0.354-0.62-0.492-0.976     C11.661,9.387,11.86,11.143,12.437,11.584z"/>
			<path fill="#E0E0E0" d="M80.498,10.111c-0.339-0.82-2.097-0.473-2.689-0.123C77.631,12.068,80.361,11.567,80.498,10.111z"/>
			<path fill="#E0E0E0" d="M82.209,9.869c-0.039-0.248-0.441-0.295-0.854-0.124C81.332,10.571,82.275,10.222,82.209,9.869z"/>
			<path fill="#E0E0E0" d="M9.376,11.212c0.322-0.125,0.55-0.349,0.61-0.733c0.292-0.115,0.604-0.215,0.492-0.733     c-0.204,0-0.406,0-0.611,0c0.018,0.632-0.806,0.421-1.102,0.733C8.742,10.953,8.962,11.183,9.376,11.212z"/>
			<path fill="#E0E0E0" d="M53.57,11.828c0.293,0.034,0.228-0.068,0.489-0.244c0.442-0.309,0.422-0.322,0.611-0.738     c0.103-0.216,0.332-0.291,0.244-0.486c-0.355-0.305-0.612,0.527-1.103,0.486c-0.249-0.157-0.218-0.593-0.734-0.486     C52.551,11.083,53.027,11.76,53.57,11.828z"/>
			<path fill="#E0E0E0" d="M6.076,12.562c-0.093,0.904,0.381,1.247,0.729,1.711c1.131-0.277,2.699,0.269,2.941-0.734     c0.092-0.415-0.185-0.294-0.371-0.614c-0.123-0.206,0.031-0.627-0.363-0.606c-0.512-0.1-0.232,0.588-0.737,0.487     c-0.367-0.284-0.518-0.784-0.735-1.222c0.104-0.346,0.398-0.505,0.368-0.98c-0.525-0.372-0.902-0.227-1.346,0     c-0.482,0.246-1.352,0.521-1.352,0.98C5.394,12.021,5.933,12.095,6.076,12.562z"/>
			<path fill="#E0E0E0" d="M51.978,12.191c0-0.239,0-0.487,0-0.731c-0.351-0.285-0.924-0.019-1.226,0.124     C50.863,12.115,51.391,12.499,51.978,12.191z"/>
			<path fill="#E0E0E0" d="M100.331,12.685c-0.637-0.366-1.173,0.107-1.595,0.121c-0.375,0.01-0.807-0.183-1.222-0.243     c-0.28-0.041-0.547,0.031-0.858,0c-0.616-0.069-1.247-0.31-1.834-0.371c-0.961-0.089-1.383,0.316-2.08,0.371     c-0.146,0.183-0.156,0.5-0.37,0.614c-0.477-0.095-0.757,0.344-1.101,0.486c-0.248,0.105-0.563,0.141-0.856,0.247     c-0.274,0.093-0.49,0.335-0.86,0.239c-0.511-0.249-0.818-0.916-1.468-0.973c-0.609-0.055-1.132,0.586-1.713,0.61     c-0.198,0.008-0.312-0.069-0.494-0.124c-0.167-0.055-0.5-0.071-0.606-0.124c-0.37-0.161-0.467-0.545-0.98-0.614     c-0.371-0.041-0.707,0.197-1.101,0.252c-0.573,0.074-1.071-0.155-1.59,0.12c-0.315,0.376,0.034,0.87,0,1.345     c-0.446,0.208-0.916,0.395-1.472,0.492c-0.382,0.143-0.347,0.711-0.854,0.732c-1.001-0.669-1.084-2.262-3.187-1.833     c-0.224,0.344-0.224,0.913-0.731,0.977c-0.552,0.028-0.785-0.342-1.351-0.368c-0.653-0.031-1.465,0.631-2.079,0     c0.162-1.871-1.187-3.127-2.813-2.45c-0.601-0.175-0.879-0.669-1.594-0.731c-0.014,0.189-0.312,0.096-0.242,0.368     c-0.437,0.4,0.11,1.001,0,1.349c-0.187,0.555-0.648,0.618-1.345,0.733c-0.6,0.968-2.111,1.342-1.595,3.057     c-0.248,0.24-0.808,0.175-0.859,0.614c-0.28,0.127-0.249,0.563-0.239,0.973c-0.554,0.231-0.844,0.719-1.473,0.863     c-0.476-0.337-0.661-0.969-1.465-0.98c-0.115,0.5-0.402,1.719-0.37,2.201c0.031,0.504,0.592,0.943,0.246,1.348     c-0.747-0.144-1.164-0.267-1.957-0.124c-0.073,0.218,0.146,0.721-0.124,0.738c-0.567,0.488-1.341,0.169-1.955,0.371     c-0.05,0.01-0.191,0.209-0.252,0.241c-0.157,0.082-0.349,0.021-0.484,0.123c-0.387,0.284-0.438,0.915-0.983,0.978     c-0.237-0.292-0.162-0.898-0.735-0.854c-0.501,0.239,0.325,1.371-0.486,1.465c-0.531-0.039-0.464-0.674-0.734-0.982     c-0.953-0.506-1.929-1.008-3.185-1.221c-0.339-0.385-0.59-0.759-0.977-0.859c-1.149-0.284-1.997,0.479-2.451,0.738     c-0.346,0.196-0.531,0.218-0.732,0.371c-0.252,0.183-0.462,0.344-0.614,0.488c-0.417,0.385-0.315,0.854-0.486,1.342     c-0.073,0.204-0.368,0.438-0.49,0.733c-0.141,0.336-0.104,0.727-0.246,0.981c-0.023,0.041-0.208,0.082-0.247,0.121     c-0.085,0.099-0.037,0.266-0.119,0.37c-0.631,0.783-1.339,0.897-1.837,1.591c0.039,0.98,0.104,1.935,0.608,2.449     c0.793,0.18,0.83-0.401,1.469-0.366c0.171,0.236,0.12,0.696,0.25,0.977c-0.181-0.179-0.803-0.179-0.985,0     c-0.276,0.519,0.072,0.937,0,1.592c-0.309,0.22-0.679,0.382-1.097,0.488c-0.325,0.328-0.492,0.82-0.981,0.978     c-0.051-0.606-1.153-1.764-1.591-2.689c-0.125-0.271,0.02-0.624-0.121-0.858c-0.237-0.395-0.803-0.421-1.104-0.246     c-0.344,0.232-0.228,0.911-0.244,1.471c-0.842,0.257-1.589,1.126-1.226,2.199c0.712,0.145,0.893-0.247,1.35-0.362     c0.175-0.395,0.051-1.088,0.61-1.103c0.237,0.505-0.43,1.479,0,2.203c0.412,0.078,1.14-0.154,1.348,0.123     c-0.233,0.42-0.824,0.488-1.225,0.735c0.024,0.812,1.184,1.005,0.979,1.837c-0.278,1.167-1.727,0.19-2.691,0.731     c-0.305,0.248-0.066,0.688-0.124,1.104c-0.089,0.669-0.4,1.227-0.124,1.709c0.42,0.474,1.018,0.262,1.103,0.86     c0.097,0.656-0.665,0.812-1.226,1.471c-0.257,0.304-0.287,1.23-0.363,1.345c-0.247,0.37-0.866,0.551-1.225,0.856     c-0.421,0.357-0.695,0.848-0.977,1.35c-0.187,0.322-0.451,0.771-0.494,1.098c-0.069,0.518,0.175,1.333,0.122,1.961     c-0.021,0.216-0.215,0.43-0.238,0.61c-0.224,1.322,0.562,1.544,1.097,2.208c0.198,0.246,0.224,0.386,0.367,0.609     c0.284,0.434,0.475,0.581,0.857,0.855c0.364,0.259,0.513,0.426,0.854,0.618c0.832,0.449,0.994,0.002,1.96,0     c0.343-0.006,0.71,0.156,0.981,0.116c0.265-0.035,0.547-0.268,0.856-0.367c1.219-0.395,1.429-0.169,2.203,0.613     c0.554-0.021,1.092-0.026,1.225,0.368c0.31,0.586-0.28,1.231-0.126,1.957c0.136,0.61,0.813,0.942,1.104,1.47     c0.157,0.284,0.391,0.788,0.492,1.22c0.077,0.368,0.184,1.099,0.118,1.473c-0.045,0.281-0.385,0.409-0.486,0.608     c-0.068,0.137-0.096,0.403-0.124,0.494c-0.312,1.008,0.038,1.714,0.368,2.448c0.156,0.357,0.399,0.714,0.49,1.103     c0.111,0.494,0.051,0.93,0.12,1.344c0.12,0.683,0.757,1.185,0.98,1.838c0.216,0.635-0.01,1.364,0.614,1.833     c0.883-0.126,1.855-0.098,2.565-0.243c0.149-0.031,0.842-0.354,0.861-0.367c0.352-0.336,0.673-0.588,1.103-1.101     c0.563-0.669,1.084-1.297,1.221-2.203c0.439-0.402,0.811-0.33,0.982-0.857c0.154-0.481-0.169-1.151,0-1.591     c0.287-0.756,1.715-0.999,2.078-1.59c0.356-0.572,0.298-2.003,0.123-2.448c-0.145-0.361-0.329-0.746-0.364-1.106     c-0.067-0.61,0.128-1.001,0.241-1.225c0.275-0.535,0.34-0.678,0.733-1.099c0.289-0.306,0.632-0.706,0.855-0.856     c0.711-0.472,1.551-1.196,1.842-1.831c0.019-0.049,0.216-0.077,0.24-0.126c0.38-0.674,0.761-1.508,0.86-2.328     c-0.759-0.803-2.63,0.839-3.063-0.367c0.22-0.385,0.828-0.412,1.348-0.61c0.552-0.214,1.285-0.488,1.716-0.735     c0.12-0.071,0.152-0.188,0.24-0.243c0.477-0.299,0.941-0.35,1.349-0.614c0.065-0.041,0.171-0.188,0.244-0.245     c0.373-0.303,0.591-0.534,0.858-0.979c0.225-0.375,0.417-0.677,0.37-0.979c-0.12-0.749-0.988-0.417-1.104-1.343     c1.247,0.206,2.188,0.229,3.551,0.119c0.638,0.548,1.326,1.043,1.711,1.836c0.453,0.041,0.842,0.141,1.104,0.367     c0.045,1.092,0.573,1.839,0.859,2.45c0.078,0.177,0.052,0.308,0.118,0.491c0.062,0.152,0.186,0.239,0.245,0.364     c0.276,0.571,0.48,1.116,0.857,1.59c0.457,0.09,0.527-0.209,0.98-0.12c-0.014,0.585,0.151,0.991,0.614,1.103     c0.178-0.113,0.599-0.614,0.241-0.855c0.066-0.56-0.653-0.329-0.612-0.856c-0.123-0.434,0.122-1.219,0.122-1.349     c0-0.041-0.146-0.269-0.122-0.49c0.055-0.443,1.095-1.342,1.47-1.713c0.889-0.89,1.32-1.493,2.574-1.468     c0.671,0.667,1.271,1.417,1.587,2.443c0.371,0.174,0.441-0.055,0.98,0c0.403,0.619,0.674,1.363,0.858,2.205     c0.473-0.052,0.338-0.729,0.979-0.614c1.164,0.405,0.826,1.357,1.839,1.348c0.353-0.004,0.728-0.49,0.853-0.61     c0.328-0.304,0.571-0.512,0.617-0.861c0.042-0.37-0.283-1.251-0.371-1.342c-0.053-0.056-0.068-0.196-0.124-0.247     c-0.22-0.216-0.553-0.276-0.731-0.488c-0.632-0.74-0.247-1.717,0.731-1.593c0.358,0.267-0.398,1.109,0.371,1.104     c0.537-0.034,0.235-0.905,0.486-1.223c0.984-0.423,1.869-0.645,2.448-1.225c0.56-0.563,0.554-0.774,0.857-1.591     c0.287-0.759,0.412-0.988,0.241-1.715c-0.049-0.224-0.064-0.608-0.119-0.74c-0.104-0.271-0.471-0.529-0.614-0.73     c-0.114-0.163-0.173-0.387-0.241-0.489c-0.192-0.274-0.235-0.146-0.247-0.487c-0.011-0.494,0.852-0.892,0.488-1.226     c-0.507-0.354-1.213,0.243-1.466-0.367c0-0.614,0.389-0.836,0.733-1.104c0.395,0.447,0.686,0.519,1.466,0.371     c0.275,0.583,0.787,1.004,1.109,1.59c0.167,0.313,0.092,0.778,0.49,0.98c0.36-0.045,0.618-0.196,0.851-0.369     c0.158-1.336-0.759-1.604-1.103-2.448c0.385-0.477,0.417-1.297,0.734-1.837c0.297-0.198,0.791-0.193,1.104-0.368     c0.338-0.444,0.64-1.132,0.859-1.833c0.188-0.625,0.494-1.671,0.487-2.205c-0.004-0.397-0.46-0.753-0.12-1.103     c0.143,0.632,0.329,1.222,0.856,1.468c0.937-1.289-0.834-2.215-0.984-3.546c-1.256-0.351-2.792,0.021-3.061-0.982     c-0.021-0.102,0.196-1.046,0.247-1.225c0.014-0.045,0.231-0.178,0.244-0.242c0.109-0.409,0.059-1.201,0.246-1.473     c0.367-0.531,1.009-0.407,1.589-0.61c0.443-0.152,0.646-0.521,0.982-0.488c0.531,0.024,0.823,0.429,1.349,0.124     c0.456-0.515-0.274-2.22,0.612-2.574c0.612-0.124,0.597,0.383,1.099,0.369c0.317-0.06,0.413-0.674,0.734-0.369     c-0.271,0.77-0.087,1.63-0.244,2.45c-0.072,0.381-0.323,0.73-0.366,1.099c-0.196,1.597,0.456,2.229,0.977,3.063     c0.371,0.594,0.674,1.355,1.227,1.591c0.61-0.475,0.349-1.615,0.49-2.325c0.037-0.188,0.241-0.312,0.241-0.49     c0.008-0.188-0.202-0.522-0.241-0.857c-0.049-0.367,0.058-0.805,0-0.981c-0.138-0.396-0.69-0.666-0.859-1.099     c-0.212-0.541,0.059-0.922-0.243-1.348c0.55-0.516,1.13-0.99,2.084-1.103c0.185-0.791,0.395-1.56,0.729-2.201     c0.222-0.311,0.834-0.224,0.861-0.738c-0.151-0.926-1.134-1.039-1.348-1.832c-0.042-0.155,0.123-0.518,0.119-0.733     c0-0.338-0.161-0.476-0.119-0.86c0.422-0.543,1.138-0.063,1.834-0.362c0.293-0.514-0.193-0.72-0.247-1.225     C100.758,13.396,100.579,13.004,100.331,12.685z M51.12,25.413c0.404,0.127,1.001,0.062,1.348,0.247     c0.008,0.659-0.77,0.539-1.348,0.612C50.945,26.109,50.945,25.582,51.12,25.413z M51.244,37.408     c0.625-0.096,0.496,0.565,0.973,0.616c0.563,0.025,0.563-0.502,0.738-0.859c0.123,0,0.247,0,0.37,0     c-0.068,1.334,1.38,1.151,1.713,2.081c-0.426,1.031-1.35,0.256-2.083,0.124c-0.834-0.151-1.464,0.278-2.447,0.367     C49.8,39.072,50.457,37.675,51.244,37.408z M45.365,31.901c-0.041-0.824,0.256-1.17,0.49-1.955     c0.019-0.545-0.498-0.74-0.49-1.225c0.011-0.701,0.571-0.991,1.103-1.349c0.103-0.509,0.094-1.132,0.491-1.348     c0.198-0.031,0.212,0.115,0.365,0.123c0.139,0.917-0.628,0.923-0.856,1.468c-0.03,1.179,0.281,2.007,1.103,2.33     c-0.063,1.107-1.059,1.547-0.611,2.812c-0.361,0.265-0.687-0.043-1.104,0c-0.604,0.069-1.245,0.727-1.714,0.126     C44.283,32.286,45.076,32.345,45.365,31.901z M50.752,44.387c-0.548-0.025-0.974-0.224-1.469-0.362     c-0.513-0.152-1.127-0.415-1.347-0.372c-0.544,0.107-0.546,0.612-0.978,0.982c-0.471-0.056-0.893-0.177-1.226-0.493     c-0.391-0.377-1.312-0.392-1.959-0.854c0.073-0.683-0.057-1.17-0.364-1.471c-1.025,0.057-1.835-0.022-2.696,0.123     c-0.906,0.155-1.764,0.877-2.693,0.489c0.422-0.522,1.054-0.356,1.468-0.86c0.19-0.22,0.111-0.692,0.247-0.973     c0.167-0.33,0.521-0.475,0.735-0.736c0.26-0.321,0.295-0.682,0.612-0.856c0.461-0.234,1.367-0.022,1.593-0.491     c0.911,0.477,1.394,1.38,2.447,1.715c0.22,0.229,0.329,0.566,0.61,0.731c1.351-1.085-0.95-1.608-1.225-2.565     c0.02-0.146,0.224-0.106,0.366-0.128c0.377,0.604,1.232,0.731,1.715,1.225c-0.002,0.288,0.21,0.364,0.122,0.737     c0.428,0.192,0.716,1.689,1.348,1.713c1.034,0.037,0.483-0.906,0.61-1.595c0.322-0.012,0.43-0.183,0.613,0     c0.114,0.123,0.045,0.479,0.12,0.613c0.094,0.156,0.155,0.309,0.251,0.494c0.187,0.368,0.344,0.404,0.61,0.734     c1.263-0.195,1.913,0.418,2.938,0.12c0.205,0.714-0.13,1.457-0.491,1.957C51.987,44.114,51.46,44.424,50.752,44.387z      M56.506,51.489c-0.295-0.004-0.515-0.073-0.734-0.245c-0.411-0.318-0.411-0.754-0.733-1.225c-0.136-0.188-0.416-0.34-0.488-0.49     c-0.126-0.254-0.115-0.679-0.249-0.98c-0.149-0.334-0.43-0.541-0.612-0.856c-0.051-0.09,0.049-0.271,0-0.37     c-0.082-0.167-0.63-0.501-0.486-1.097c0.123,0,0.239,0,0.368,0c0.25,0.292,0.35,0.62,0.61,0.98     c0.205,0.285,0.583,0.521,0.734,0.855c0.083,0.185,0.016,0.428,0.123,0.61C55.57,49.562,56.726,50.312,56.506,51.489z      M57.237,37.659c0.452-0.409,0.75-0.969,1.72-0.861c0.335,0.573-0.421,0.593-0.372,1.227c-0.013,0.475,0.524,0.712,0.734,1.103     c0.141,0.253,0.141,0.606,0.247,0.854c0.224,0.539,0.788,1.033,0.487,1.589c-0.58,0.367-1.239-0.102-1.59-0.362     C58.833,39.246,57.385,39.104,57.237,37.659z M60.548,47.322c-0.618-0.002-1.308-1.304-1.715-1.707     c-0.142-0.183-0.142-0.312,0-0.49c0.124,0,0.246,0,0.362,0c0.412,0.853,1.394,1.136,2.331,1.463     C61.197,47.031,60.946,47.33,60.548,47.322z"/>
			<path fill="#E0E0E0" d="M81.479,12.438c0.072-0.439-0.365-0.374-0.734-0.37C80.577,12.621,81.238,12.664,81.479,12.438z"/>
			<path fill="#E0E0E0" d="M43.774,16.847c0.803-0.055,0.46-1.253,1.101-1.471c0.161,0.329,0.265,0.716,0.858,0.614     c0.46-0.824-0.762-0.925-0.734-1.717c0.665-0.191,1.365-0.344,1.349-1.221c-0.332-0.447-1.17-0.385-1.959-0.368     c-0.334,0.236-0.56,0.584-0.979,0.734c-0.295,0.161-0.848,0.048-1.104,0.244c-0.395,0.958,0.436,1.548,0.854,2.079     C43.179,16.302,43.459,16.595,43.774,16.847z"/>
			<path fill="#E0E0E0" d="M25.168,59.321c-0.338-0.251-0.762-0.649-0.978-0.736c-0.555-0.212-1.273-0.069-1.838-0.24     c-0.255-0.081-0.467-0.375-0.732-0.488c-0.325-0.145-0.638-0.049-0.857-0.124c-0.774-0.277-0.706-0.753-0.98-1.349     c-0.132-0.284-0.315-0.68-0.49-0.856c-0.045-0.05-0.526-0.391-0.736-0.487c-0.421-0.194-0.716-0.068-1.225-0.123     c-0.523-0.056-1.121-0.875-1.463-1.103c-0.303-0.2-0.56-0.666-0.734-0.734c-0.594-0.229-1.465,0.083-1.959,0     c-0.55-0.09-0.725-0.43-1.104-0.49c-0.962-0.161-1.615,0.038-1.959,0.243c-0.351,0.216-0.505,0.659-1.099,0.857     c-0.206,0.068-0.473-0.076-0.613,0.124l-0.097,0.092c-0.059-0.012-0.12-0.018-0.182-0.002l-0.089-0.09     c-0.879-0.128-1.322-0.371-1.47-1.101c-0.092-0.468,0.398-0.995,0.124-1.47c-0.25-0.528-1.383-0.175-1.715-0.614     c-0.293-0.651,0.556-1.129,0.371-2.081c-1.27-0.509-1.27,0.633-1.841,0.98c-1.361,0.83-2.405-0.494-2.203-2.078     c0.035-0.298,0.43-1.762,0.489-1.836c0.205-0.274,1.269-0.724,1.471-0.738c0.33-0.014,0.714,0.295,1.099,0.248     c0.326-0.122,0.563-0.427,0.985-0.49c0.657-0.102,1.426,0.222,1.832,0.49c0.133,0.72,0.133,1.581,0.981,1.589     c0.679-0.808-0.31-1.583,0-2.572c0.064-0.208,0.294-0.326,0.486-0.489c0.404-0.34,0.718-0.576,1.104-0.854     c0.239-0.175,0.525-0.251,0.608-0.368c0.276-0.389,0.179-0.95,0.368-1.349c0.118-0.241,0.416-0.473,0.612-0.735     c0.506-0.66,0.738-0.938,1.587-1.1c0.228-0.7,0.54-1.41,1.349-1.467c0.409-0.031,0.618,0.205,1.106,0.245     c0.56-0.38,1.463-0.414,1.707-1.101c-0.624-0.115-0.911-0.124-1.217-0.614c-0.1-0.154,0.065-0.569,0-0.857     c-0.087-0.36-0.665-0.394-0.248-0.61c0.625,0.138,0.95,0.268,1.465,0.12c0.43-0.116,1.037-0.467,1.354-0.247     c-0.095,0.525-0.572,0.659-0.493,1.35c0.575,0.28,1.182,0.534,2.08,0.492c0.416-0.908-0.484-1.33-0.733-1.966     c0.349-0.779,0.278-1.426,0-1.833c-0.087-0.121-0.175-0.407-0.244-0.49c-0.292-0.331-0.759-0.413-0.977-0.853     c-0.228-0.453-0.158-0.964-0.247-1.349c-0.09-0.402-0.151-0.751-0.369-1.227c-0.867-0.135-0.645,0.828-1.587,0.616     c-0.348-0.374-0.183-0.783-0.128-1.349c-0.58-0.759-1.33-1.89-2.689-1.471c-0.332,0.439-0.096,0.952-0.244,1.471     c-0.109,0.388-0.452,0.678-0.49,1.104c-0.041,0.421,0.258,0.941,0.12,1.345c-0.173,0.521-1.027,0.627-1.346,1.221     c-0.367,0.691,0.241,1.089-0.488,1.591c-0.677-0.131-0.166-1.463-0.491-1.953C9.99,31.188,9.706,31.277,9.5,31.167     c-0.597-0.312-1.083-1.014-1.592-1.347c-0.082-0.056-0.161-0.073-0.245-0.126c-0.476-0.277-0.569-0.47-0.733-0.973     c-0.428-1.308,0.567-1.912,1.346-2.573c0.606-0.512,1.229-1.112,2.08-1.099c0.327,0.116,0.304,0.593,0.614,0.734     c0.588-0.179,0.969-0.234,1.467-0.25c0.105-0.792-0.73-1.177-0.486-1.709c0.747-0.36,1.241-0.609,1.465-1.35     c0.175-0.555,0.411-1.11,0.736-1.467c0.838-0.147,1.058,0.325,1.227,0.853c-0.008,0.53-0.649,0.417-0.494,1.109     c0.541,0.158,0.885-0.579,1.104,0c-0.083,0.854-0.766,1.112-1.223,1.589c-0.482,0.01-1.075-0.096-0.979,0.49     c-0.053,0.659,1.023,0.196,1.347,0.484c0.263,0.276,0.283,0.913,0.606,1.227c0.229,0.22,0.838,0.502,1.104,0.488     c0.228-0.008,0.875-0.393,0.979-0.488c0.551-0.496,0.064-1.262-0.125-1.96c0.46-0.012,0.374,0.527,0.982,0.369     c0.535-0.332,0.844-0.515,0.857-0.981c0.006-0.315-0.385-0.579-0.612-0.854c-0.281-0.334-0.578-0.545-0.612-0.859     c0.048-0.482,0.271-0.726,0.241-1.101c-0.064-0.934-1.192-1.41-1.591-2.329c-0.167-0.396-0.263-0.772-0.239-1.341     c-0.371-0.545-1.187-0.344-1.842-0.491c-0.248-0.059-0.436-0.194-0.612-0.247c-1.528-0.49-2.449,1.232-2.321,2.817     c0.222,0.354,0.647,0.521,0.61,1.101c-0.024,0.356-0.357,0.883-0.854,0.859c-0.167-0.503-0.759-0.955-0.862-1.589     c-0.023-0.184,0.111-0.529,0.126-0.738c0.032-0.525-0.081-1.095,0.121-1.593c0.663-0.439,1.954-0.253,1.716-1.592     c-0.49-0.429-1.194-0.388-1.716,0c-0.564-0.894-1.193-0.452-1.715,0c-0.596,0.522-0.692,0.621-0.486,1.225     c0.037,0.114,0.037,0.35,0.123,0.49c0.158,0.285,0.583,0.348,0.61,0.736c0.018,0.241-0.072,0.346-0.123,0.488     c-0.235,0.694-0.579,0.694-1.225,0.983c-0.233,0.421-0.068,0.893-0.612,1.097c-0.596,0.224-1.495-0.179-1.467-0.857     c0.91,0.017,1.612-0.474,1.712-1.101c0.038-0.224-0.169-0.293-0.245-0.486c-0.229-0.616-0.039-1.46,0.122-1.841     c0.198-0.449,0.779-0.683,0.733-1.347c-0.771-0.478-1.215,0.554-1.956,0.49c-0.838-0.069-1.114-0.804-1.22-1.961     c-0.787-0.624-1.646-0.95-2.212-0.362c-0.602,0.627-1.978,1.66-1.463,2.569c0.377,0.362,1.204-0.124,1.463,0.124     c-0.193,0.463,0.087,0.967,0,1.344c-0.024,0.138-0.29,0.337-0.362,0.492c-0.116,0.237,0.027,0.693-0.369,0.612     c-0.574-0.037-0.722-0.505-0.979-0.857c-0.856-0.124-1.406-0.551-1.835-1.104c-1.198-0.01-2.257,0.114-3.303,0.247     c-0.26-0.237-0.467-0.514-0.616-0.857c-0.439-0.045-0.545-0.519-0.857-0.736c-0.251-0.173-0.739-0.256-1.101-0.486     c-0.051-0.036-0.067-0.201-0.124-0.248c-0.1-0.077-0.271-0.051-0.366-0.122c-0.06-0.037-0.06-0.198-0.12-0.244     c-0.114-0.084-0.271-0.032-0.366-0.122c-0.251-0.227-0.31-0.543-0.489-0.734c-0.28-0.293-0.445-0.385-0.857-0.486     c-0.714-0.185-1.314,0.107-1.714,0.242c-0.233,0.079-0.55,0.038-0.736,0.12c-0.469,0.21-0.819,0.663-1.348,0.858     c-0.428,0.158-0.922-0.085-1.22,0.366c-0.128,0.902,0.376,1.822,0,2.569c-0.406,0.05-0.602-0.476-1.106-0.486     c-0.106-0.004-0.429,0.167-0.612,0.244c-0.755,0.315-0.713,0.792-0.608,1.593c0.22,0.477,1.233,0.151,1.343,0.733     c-0.216,0.838-1.161,0.369-1.711,0.614c-0.09,0.038-0.293,0.314-0.49,0.486c-0.22,0.192-0.531,0.357-0.614,0.491     c-0.212,0.36-0.403,1.167-0.364,1.467c0.069,0.556,0.855,0.7,0.732,1.594c0.312,0.224,0.84,0.224,0.856,0.731     c-0.387,1.12-1.82,1.199-2.445,2.082c1.358,0.014,1.92-0.766,2.936-1.099c0.488-0.124,0.368,0.36,0.86,0.241     c0.722-0.375,0.372-1.637,1.097-1.837c0.675,0.521,1.906,0.118,2.448-0.247c0.247,0.155,0.492,0.395,0.859,0.618     c0.285,0.165,0.733,0.261,0.98,0.49c0.138,0.128,0.385,0.746,0.491,0.858c0.476,0.49,0.325,1.045,0.482,1.831     c0.035,0.152,0.066,0.274,0.123,0.49c0.058,0.197,0.09,0.515,0.124,0.61c0.131,0.314,0.509,0.562,0.612,0.854     c0.062,0.177-0.049,0.516,0,0.739c0.045,0.181,0.22,0.4,0.247,0.487c0.214,0.727-0.008,1.127-0.124,1.716     c0.194,0.528,0.658,0.805,0.734,1.348c0.031,0.196-0.097,0.391-0.12,0.606c-0.082,0.732-0.112,0.811-0.243,1.229     c-0.209,0.659-0.502,1.095-0.612,1.589c-0.168,0.73-0.156,2.021,0,2.572c0.12,0.449,0.261,1.167,0.365,1.473     c0.249,0.721,0.832,0.729,1.225,1.345c0.179,0.282,0.175,0.771,0.366,1.227c0.239,0.545,0.836,0.887,0.61,1.711     c0.541,0.397,0.628,1.249,1.351,1.471c0.115-0.569-0.476-1.069-0.13-1.471c0.461,0.127,0.447,0.614,0.616,0.853     c0.074,0.106,0.294,0.146,0.368,0.252c0.083,0.105,0.04,0.246,0.122,0.366c0.239,0.344,0.645,0.535,0.734,0.977     c0.047,0.229-0.124,0.709,0,0.979c0.31,0.683,2.378,1.727,3.182,1.839c0.368,0.049,0.881-0.11,1.223,0     c0.323,0.096,0.586,0.611,1.108,0.855c0.467,0.223,1.167,0.17,1.465,0.362c0.56,0.371,0.651,1.063,0.981,1.35     c0.188,0.171,0.477,0.235,0.733,0.369c0.68,0.349,1.003,0.655,1.594,0h0.119c0.265,0.512,0.702,0.89,0.614,1.713     c-0.051,0.422-0.357,0.619-0.614,0.981C8.087,56.895,7.67,57.25,7.54,57.608c-0.188,0.543,0.072,0.72,0,1.225     c-0.052,0.351-0.295,0.612-0.245,0.854c0.065,0.334,0.688,0.885,0.98,1.349c0.33,0.527,0.655,1.245,0.857,1.593     c0.183,0.315,0.357,0.826,0.49,0.977c0.706,0.811,1.839,0.834,2.203,1.835c0.49,1.357-0.051,3.967,0,5.268     c0.022,0.453,0.153,0.913,0.124,1.345c-0.045,0.594-0.34,1.125-0.371,1.717c-0.006,0.222,0.097,0.519,0.127,0.856     c0.03,0.391-0.055,0.853,0,1.223c0.042,0.332,0.22,0.529,0.244,0.859c0.064,1.13-0.22,2.331,0,3.304     c0.092,0.42,0.428,0.848,0.61,1.225c0.216,0.429,0.385,0.846,0.614,1.222c0.84,0.289,1.694,1.493,2.813,0.734     c0.096-0.423-0.212-0.655-0.368-0.857c-0.224-0.294-0.448-0.385-0.613-0.734c-0.107-0.229-0.271-0.555-0.241-0.977     c0.031-0.572,0.651-0.983,0.612-1.594c-0.036-0.462-0.532-0.675-0.494-1.101c0.401-0.622,0.785-1.255,0.736-2.327     c0.594-0.059,0.511-0.794,0.858-1.101c0.5-0.188,1.121-0.261,1.467-0.61c0.146-0.342,0.138-0.847,0.126-1.349     c0.291-0.153,0.739-0.157,0.977-0.367c0.45-0.355,0.45-0.912,0.734-1.344c0.151-0.234,0.467-0.398,0.614-0.614     c0.171-0.251,0.401-0.614,0.49-0.855c0.237-0.665-0.074-0.974,0.241-1.468c0.115-0.186,0.377-0.198,0.492-0.247     c0.038-0.018,0.077-0.216,0.122-0.247c0.105-0.065,0.276-0.072,0.367-0.12c0.143-0.078,0.222-0.184,0.366-0.247     c0.22-0.086,0.661-0.01,0.978-0.243c0.655-0.477,1.009-1.84,1.104-2.937c0.021-0.239-0.088-0.714,0-0.984     c0.077-0.229,0.498-0.666,0.734-0.977c0.297-0.403,0.639-0.619,0.731-1.104C26.22,59.812,25.749,59.757,25.168,59.321z"/>
			<path fill="#E0E0E0" d="M56.996,21.375c-0.139-0.782-0.678-0.973-0.733-1.711c-0.021-0.265,0.168-0.529,0.243-0.856     c0.083-0.371,0.014-0.722,0.128-0.983c0.032-0.088,0.274-0.227,0.362-0.367c0.12-0.197,0.144-0.48,0.241-0.61     c0.452-0.584,1.34-0.885,1.348-1.589c-0.104-0.263-0.298-0.436-0.733-0.372c-0.196,0.308-0.365,0.479-0.735,0.734     c-0.634,0.448-0.928,0.429-1.345,1.104c-0.411,0.665-0.364,1.177-0.49,2.205c-0.08,0.653-0.298,1.401-0.243,1.589     C55.213,21.104,56.211,21.636,56.996,21.375z"/>
			<path fill="#E0E0E0" d="M34.844,25.66c-0.93-0.229-2.161-0.006-2.944,0c-0.14,0.702,0.053,1.611,0.736,1.837     C33.753,27.871,35.563,26.695,34.844,25.66z"/>
			<path fill="#E0E0E0" d="M92.86,33.737c-0.018,0.268,0.102,0.389,0.368,0.371C93.249,33.84,93.127,33.716,92.86,33.737z"/>
			<path fill="#E0E0E0" d="M93.229,37.165c0.738-0.281,1.564-0.475,1.713-1.346c-0.527-0.243-0.996-0.551-1.713-0.61     C93.265,35.911,92.691,36.694,93.229,37.165z"/>
			<path fill="#E0E0E0" d="M92.742,39.98c-0.224,0.274-0.358,0.563-0.618,0.736c-0.633,0.262-1.416,0.678-1.589,1.347     c-0.123,0.483-0.298,1.05,0.488,1.225c0.299-0.233,0.224-0.84,0.614-0.98c0.522-0.116,0.935-0.4,1.349-0.61     c0.477-0.244,0.92-0.439,1.346-0.738c-0.076-1.393,0.367-3.3-0.978-3.427c-0.177,0.586,0.146,1.196,0,1.714     C93.261,39.559,92.917,39.759,92.742,39.98z"/>
			<path fill="#E0E0E0" d="M42.794,39.98c-0.183,0.187-0.214,0.838,0.245,0.736C43.229,40.529,43.259,39.874,42.794,39.98z"/>
			<path fill="#E0E0E0" d="M44.757,41.817c0.417,0.055,0.695-0.039,0.608-0.489C45.009,41.34,44.678,41.371,44.757,41.817z"/>
			<path fill="#E0E0E0" d="M87.473,46.714c-0.174,0.177-0.174,0.804,0,0.979c0.521-0.016,0.542-0.6,0.371-0.979     C87.722,46.714,87.601,46.714,87.473,46.714z"/>
			<path fill="#E0E0E0" d="M10.111,49.162c-0.121-0.655-0.796-0.755-1.469-0.854v0.088c-0.165-0.067-0.326-0.143-0.486-0.193v-0.142     c0.018-0.202-0.756-0.202-0.734,0c0.254,0.068,0.346,0.305,0.734,0.247v-0.1L8.643,48.4v0.148     C8.88,48.966,9.445,49.576,10.111,49.162z"/>
			<path fill="#E0E0E0" d="M10.844,49.896c0.482,0.352,1.304,0.238,1.593-0.242C12.294,49.058,10.649,48.838,10.844,49.896z"/>
			<path fill="#E0E0E0" d="M88.334,49.653c-1.314-0.046-0.623,2.017-0.247,2.45c0.353,0.01,0.803-0.069,0.985,0.115     c-0.476,0.418-0.065,1.04,0,1.472c0.047,0.348-0.045,0.663,0,0.735c0.137,0.268,0.783,0.666,0.975,0.614     c0.748-0.19,0.537-1.436-0.124-1.836c0.021-0.302,0.021-0.595-0.121-0.736c-0.394-0.424-0.996-0.681-1.22-1.348     C88.419,50.659,88.766,50.064,88.334,49.653z"/>
			<path fill="#E0E0E0" d="M85.394,61.036c0.045-0.515-0.524-0.811-0.854-0.854c-0.348-0.053-0.655,0.186-0.977,0.124     c-0.178-0.041-0.482-0.191-0.617-0.25c-0.222-0.089-0.555-0.114-0.609-0.368c0.004-0.399,0.205-0.608,0.119-1.103     c-0.431-0.403-0.665-0.505-0.854-0.977c-0.251-0.606-0.133-1.888-0.366-2.323c-0.212-0.396-0.845-0.541-1.105-0.859     c-0.137-0.166-0.168-0.494-0.242-0.611c-0.15-0.236-0.228-0.227-0.37-0.486c-0.028-0.101-0.102-0.148-0.242-0.124     c-0.565,1.196,1.181,1.619,0.612,2.817c-0.637-0.142-0.76-0.797-1.594-0.736c-0.261,0.637,0.528,1.003,0.857,1.466     c0.039,0.056-0.031,0.185,0,0.243c0.014,0.041,0.214,0.081,0.244,0.12c0.039,0.059-0.028,0.19,0,0.25     c0.021,0.042,0.218,0.073,0.244,0.124c0.185,0.319,0.346,0.954,0.49,1.097c0.411,0.431,0.946,0.97,1.349,1.227     c0.157,0.105,0.436,0.12,0.614,0.244c0.325,0.24,0.43,0.614,0.733,0.732c0.138,0.06,0.532-0.061,0.855,0     c0.224,0.049,0.426,0.228,0.61,0.248C84.69,61.081,84.999,61.002,85.394,61.036z"/>
			<path fill="#E0E0E0" d="M86.374,54.793c-0.838,0.836-1.636,1.711-2.811,2.201c-0.415,1.501,1.247,2.455,2.688,2.085     c0.265-0.637,0.855-1.347,0.98-1.965c0.062-0.308-0.146-0.625-0.124-0.973c0.026-0.395,0.361-0.574,0.246-0.981     C87.07,54.995,86.947,54.669,86.374,54.793z"/>
			<path fill="#E0E0E0" d="M87.844,57.732c-0.453,0.344-0.477,1.332-0.122,1.836c0.406,0,0.815,0,1.223,0     c0.128-0.385-0.076-1.026,0-1.712C88.746,57.647,88.225,57.757,87.844,57.732z"/>
			<path fill="#E0E0E0" d="M96.656,58.585c-0.609-0.214-1.231-0.407-1.715-0.362c-0.319,0.024-0.609,0.302-0.975,0.241     c-0.239-0.214-0.354-0.549-0.612-0.731c-0.327,0-0.704-0.047-0.858,0.124c0.117,0.517,0.25,0.93,0.612,1.223     c0.139,0.112,0.423,0.046,0.609,0.118c0.194,0.083,0.331,0.293,0.493,0.371c0.224,0.11,0.43,0.012,0.611,0.119     c0.398,0.24,0.346,0.766,0.491,1.229c0.596,0.141,0.944,0.56,1.587,0.486c0.447-0.047,0.614-0.545,1.103-0.486     c0.647,0.208,0.7,1.013,1.719,0.854c0.192-0.598-0.82-0.95-0.738-1.835C98.27,59.411,97.649,58.944,96.656,58.585z"/>
			<path fill="#E0E0E0" d="M99.351,67.157c-0.114-0.206-0.125-0.567-0.243-0.733c-0.269-0.379-0.65-0.54-0.859-0.983     c-0.377-0.781-0.338-1.666-0.733-2.077c-0.28-0.293-0.268-0.817-0.734-0.858c-0.706,0.396-0.257,1.951-0.98,2.325     c-0.761-0.138-1.312-0.482-1.589-1.101c0.107-0.299,0.283-0.531,0.24-0.977c-0.696-0.352-1.424-0.608-2.079-0.369     c-0.638,0.229-0.673,1.108-1.349,1.222c-0.269-0.096-0.472-0.261-0.853-0.242c-0.616,0.407-0.928,1.113-1.717,1.345     c-0.391,1.89-2.841,1.005-3.671,2.325c-0.303,0.48-0.376,1.376-0.367,1.96c0.018,0.826,0.423,1.652,0.367,2.573     c-0.027,0.421-0.384,0.837-0.243,1.343c0.175,0.073,0.299,0.19,0.366,0.37c0.62,0.211,1.155-0.38,1.833-0.493     c0.276-0.044,0.661,0.096,0.982,0c0.37-0.115,0.65-0.483,0.976-0.61c0.306-0.115,0.762-0.185,1.104-0.247     c1.503-0.271,2.234,0,2.57,1.225c0.554,0.263,0.958,0.576,1.221,1.106c0.205,0.398,0.162,0.796,0.374,1.221     c0.471,0.545,1.568,0.47,2.323,0.732c0.298-0.349,0.924-0.382,1.348-0.61c0.385-0.38,0.348-0.875,0.61-1.343     c0.029-0.049,0.207-0.073,0.247-0.124c0.069-0.096,0.067-0.282,0.118-0.366c0.137-0.207,0.253-0.448,0.37-0.616     c0.275-0.387,0.666-0.612,0.854-0.978c0.068-0.125,0.097-0.404,0.124-0.49c0.162-0.478,0.439-1.098,0.494-1.59     c0.15-1.393-0.377-1.859-0.861-2.695C99.533,67.29,99.399,67.239,99.351,67.157z"/>
			<path fill="#E0E0E0" d="M59.079,62.629c-0.374,0.263-0.446,0.665-0.856,0.977c-0.218,0.169-0.567,0.124-0.736,0.248     c-0.584,0.418-0.349,0.916-0.49,1.713c-0.059,0.327-0.332,0.586-0.362,0.977c-0.06,0.582-0.013,0.906,0.362,1.352     c1.334,0.271,1.637-1.209,1.961-2.083c0.358-0.981,0.98-2.302,0.49-3.183C59.319,62.629,59.195,62.629,59.079,62.629z"/>
			<path fill="#E0E0E0" d="M107.673,75.727h-0.242c0.067,1.207-0.886,1.403-0.614,2.813c-0.368,0-0.73,0-1.101,0     c-0.358,0.381-0.653,0.861-1.099,1.225c-0.804,0.655-2.308,0.889-1.839,2.327c1.255,0.572,1.632-0.883,2.079-1.345     c0.059-0.059,0.309-0.083,0.369-0.123c0.2-0.135,0.275-0.292,0.365-0.491c0.016-0.034,0.216-0.085,0.246-0.121     c0.332-0.399,0.606-0.758,0.858-1.104c0.467-0.052,0.883-0.357,1.101-0.61c0.128-0.146,0.141-0.358,0.242-0.488     c0.393-0.477,0.633-0.455,0.614-0.859C108.625,76.382,107.956,76.292,107.673,75.727z"/>
			<path fill="#E0E0E0" d="M95.313,77.315c-0.372,0.344-0.53,1.29-0.124,1.715c0.93,0.036,1.262-0.535,1.225-1.467     C96.064,77.46,95.656,77.416,95.313,77.315z"/>
		</g>
	        <g clip-path="url(#SVGID_2_)" id="backgroundImage" style="display:none;">
                  <image id="image" width="90px" height="90px" xlink:href=""/>
                </g>
	</g>
	<g>
		<g>
			<radialGradient id="SVGID_3_" cx="23.3052" cy="9.0151" r="80.7558" gradientUnits="userSpaceOnUse">
				<stop offset="0" style="stop-color:#FFCE4E"/>
				<stop offset="1" style="stop-color:#F5C337"/>
			</radialGradient>
			<path fill="url(#SVGID_3_)" d="M49.672,53.832L34.18,79.566h7.824c1.853,0,4.152-1.299,5.108-2.894l6.591-10.968     c0.778-1.606,0.751-3.947-0.138-5.43L49.672,53.832z"/>
			<radialGradient id="SVGID_4_" cx="23.3066" cy="9.0176" r="80.7521" gradientUnits="userSpaceOnUse">
				<stop offset="0" style="stop-color:#0DA960"/>
				<stop offset="1" style="stop-color:#05924B"/>
			</radialGradient>
			<path fill="url(#SVGID_4_)" d="M42.591,42.11c0.955,1.588,0.955,4.191,0,5.786L25.19,76.99c-0.672,1.437,0.026,2.576,1.753,2.576     h7.236l15.492-25.734L42.591,42.11z"/>
			<radialGradient id="SVGID_5_" cx="23.3052" cy="9.0166" r="80.7525" gradientUnits="userSpaceOnUse">
				<stop offset="0" style="stop-color:#577EC0"/>
				<stop offset="1" style="stop-color:#557EBF"/>
			</radialGradient>
			<path fill="url(#SVGID_5_)" d="M26.943,10.434c-1.858,0-2.597,1.305-1.641,2.894l28.263,46.948     c0.889,1.482,0.916,3.823,0.138,5.43l6.87-11.434l-26.39-43.838H26.943z"/>
			<radialGradient id="SVGID_6_" cx="23.3076" cy="9.0166" r="80.7506" gradientUnits="userSpaceOnUse">
				<stop offset="0" style="stop-color:#E04B3F"/>
				<stop offset="1" style="stop-color:#CD382D"/>
			</radialGradient>
			<path fill="url(#SVGID_6_)" d="M64.399,42.11L47.112,13.327c-0.956-1.589-3.256-2.894-5.108-2.894h-7.82l26.39,43.838     l3.826-6.375C65.355,46.302,65.355,43.698,64.399,42.11z"/>
			<linearGradient id="SVGID_7_" gradientUnits="userSpaceOnUse" x1="57.7617" y1="53.9077" x2="38.3072" y2="53.9077">
				<stop offset="0" style="stop-color:#231F20;stop-opacity:0.2"/>
				<stop offset="1" style="stop-color:#F2F2F2;stop-opacity:0.25"/>
			</linearGradient>
			<path fill="url(#SVGID_7_)" d="M53.565,60.275L42.591,42.11c0.955,1.588,0.955,4.191,0,5.786l-3.863,6.434l14.976,11.375     C54.481,64.099,54.454,61.758,53.565,60.275z"/>
		</g>
		<radialGradient id="SVGID_8_" cx="45" cy="45" r="28.2798" gradientUnits="userSpaceOnUse">
			<stop offset="0" style="stop-color:#FFFFFF;stop-opacity:0.1"/>
			<stop offset="0.0896" style="stop-color:#FFFFFF;stop-opacity:0.091"/>
			<stop offset="1" style="stop-color:#FFFFFF;stop-opacity:0"/>
		</radialGradient>
		<path fill="url(#SVGID_8_)" d="M64.399,42.11L47.112,13.327c-0.956-1.589-3.256-2.894-5.108-2.894h-7.82h-7.24    c-1.858,0-2.597,1.305-1.641,2.894L42.591,42.11c0.955,1.588,0.955,4.191,0,5.786L25.19,76.99    c-0.672,1.437,0.026,2.576,1.753,2.576h7.236h7.824c1.853,0,4.152-1.299,5.108-2.894l13.461-22.401l3.826-6.375    C65.355,46.302,65.355,43.698,64.399,42.11z"/>
	</g>
</g>
</svg>